<svg width="663" height="258" viewBox="0 0 663 258" fill="none" xmlns="http://www.w3.org/2000/svg">
<path d="M3.59948 13.3892V2.28054H4.31112V13.3892H3.59948ZM5.99478 5.61313C5.94271 5.17341 5.73153 4.83206 5.36124 4.58905C4.99095 4.34605 4.53677 4.22455 3.99869 4.22455C3.60526 4.22455 3.26101 4.28819 2.96594 4.41548C2.67375 4.54277 2.44522 4.71779 2.28032 4.94054C2.11832 5.16329 2.03732 5.41642 2.03732 5.69992C2.03732 5.93713 2.09373 6.14108 2.20655 6.31176C2.32227 6.47955 2.46981 6.61985 2.64917 6.73268C2.82852 6.8426 3.01656 6.93373 3.21328 7.00605C3.40999 7.07548 3.5908 7.13189 3.75569 7.17529L4.65827 7.41829C4.8897 7.47904 5.14716 7.56293 5.43067 7.66997C5.71706 7.777 5.99044 7.92309 6.2508 8.10824C6.51405 8.29049 6.73101 8.52481 6.90169 8.81121C7.07237 9.0976 7.15771 9.44909 7.15771 9.86566C7.15771 10.3459 7.03187 10.7798 6.78019 11.1675C6.53141 11.5551 6.1669 11.8632 5.68669 12.0917C5.20936 12.3203 4.62934 12.4345 3.94662 12.4345C3.31019 12.4345 2.75909 12.3318 2.29334 12.1264C1.83048 11.9211 1.46598 11.6347 1.19983 11.2673C0.936582 10.8999 0.787599 10.4732 0.752884 9.98716H1.86375C1.89268 10.3227 2.0055 10.6005 2.20222 10.8203C2.40182 11.0373 2.6535 11.1993 2.95726 11.3063C3.2639 11.4105 3.59369 11.4625 3.94662 11.4625C4.35741 11.4625 4.72625 11.396 5.05315 11.2629C5.38004 11.127 5.63895 10.9389 5.82988 10.6988C6.02081 10.4558 6.11628 10.1723 6.11628 9.8483C6.11628 9.55323 6.03383 9.31312 5.86894 9.12798C5.70404 8.94283 5.48708 8.7924 5.21804 8.67669C4.949 8.56097 4.65827 8.45972 4.34584 8.37294L3.25233 8.06051C2.55804 7.8609 2.00839 7.57595 1.60339 7.20566C1.19839 6.83537 0.995886 6.35082 0.995886 5.75199C0.995886 5.25441 1.1304 4.82048 1.39944 4.4502C1.67137 4.07701 2.03588 3.78773 2.49295 3.58233C2.95292 3.37404 3.4664 3.2699 4.03341 3.2699C4.6062 3.2699 5.11534 3.3726 5.56085 3.57799C6.00635 3.78049 6.35928 4.05821 6.61964 4.41114C6.88289 4.76407 7.02175 5.16474 7.03621 5.61313H5.99478ZM11.8959 12.3998C11.3231 12.3998 10.8125 12.3015 10.3641 12.1047C9.91857 11.908 9.5642 11.6347 9.30094 11.2846C9.04059 10.9317 8.89884 10.5223 8.87569 10.0566H9.9692C9.99234 10.343 10.0907 10.5903 10.2643 10.7986C10.4378 11.004 10.6649 11.1631 10.9455 11.2759C11.2262 11.3888 11.5371 11.4452 11.8785 11.4452C12.2604 11.4452 12.5988 11.3786 12.8939 11.2456C13.189 11.1125 13.4204 10.9273 13.5882 10.6901C13.756 10.4529 13.8399 10.1781 13.8399 9.86566C13.8399 9.53877 13.7589 9.25092 13.5969 9.00214C13.4349 8.75046 13.1977 8.55374 12.8852 8.41199C12.5728 8.27024 12.1909 8.19936 11.7396 8.19936H11.028V7.24471H11.7396C12.0926 7.24471 12.4021 7.18107 12.6683 7.05378C12.9373 6.9265 13.147 6.74714 13.2975 6.51571C13.4508 6.28428 13.5274 6.01235 13.5274 5.69992C13.5274 5.39906 13.4609 5.13725 13.3278 4.9145C13.1948 4.69175 13.0067 4.51818 12.7637 4.39378C12.5236 4.26939 12.2401 4.20719 11.9132 4.20719C11.6066 4.20719 11.3173 4.2636 11.0453 4.37643C10.7763 4.48636 10.5565 4.64691 10.3858 4.85809C10.2151 5.06638 10.1225 5.31806 10.1081 5.61313H9.06662C9.08398 5.14738 9.22428 4.73948 9.48754 4.38944C9.75079 4.03651 10.095 3.76169 10.5203 3.56498C10.9484 3.36826 11.4185 3.2699 11.9306 3.2699C12.4802 3.2699 12.9518 3.38128 13.3452 3.60403C13.7386 3.82389 14.0409 4.11462 14.2521 4.47623C14.4633 4.83784 14.5689 5.22838 14.5689 5.64785C14.5689 6.14831 14.4372 6.57501 14.174 6.92794C13.9136 7.28088 13.5593 7.52532 13.1109 7.66129V7.73072C13.6721 7.82329 14.1104 8.06195 14.4257 8.4467C14.741 8.82856 14.8987 9.30155 14.8987 9.86566C14.8987 10.3488 14.767 10.7827 14.5038 11.1675C14.2434 11.5493 13.8876 11.8502 13.4363 12.07C12.985 12.2899 12.4715 12.3998 11.8959 12.3998ZM19.6943 12.3998C19.0405 12.3998 18.4836 12.2219 18.0237 11.8661C17.5637 11.5074 17.2122 10.9881 16.9692 10.3083C16.7262 9.62555 16.6047 8.80108 16.6047 7.83486C16.6047 6.87443 16.7262 6.0543 16.9692 5.37447C17.2151 4.69175 17.568 4.17103 18.028 3.81232C18.4909 3.45071 19.0463 3.2699 19.6943 3.2699C20.3423 3.2699 20.8963 3.45071 21.3563 3.81232C21.8191 4.17103 22.172 4.69175 22.4151 5.37447C22.6609 6.0543 22.7839 6.87443 22.7839 7.83486C22.7839 8.80108 22.6624 9.62555 22.4194 10.3083C22.1764 10.9881 21.8249 11.5074 21.3649 11.8661C20.905 12.2219 20.3481 12.3998 19.6943 12.3998ZM19.6943 11.4452C20.3423 11.4452 20.8457 11.1327 21.2044 10.5079C21.5631 9.88302 21.7425 8.99201 21.7425 7.83486C21.7425 7.06536 21.66 6.41012 21.4951 5.86915C21.3331 5.32818 21.0988 4.91595 20.7921 4.63245C20.4884 4.34894 20.1224 4.20719 19.6943 4.20719C19.0521 4.20719 18.5502 4.52396 18.1886 5.1575C17.8269 5.78815 17.6461 6.6806 17.6461 7.83486C17.6461 8.60437 17.7271 9.25816 17.8891 9.79623C18.0511 10.3343 18.284 10.7436 18.5878 11.0243C18.8944 11.3049 19.2633 11.4452 19.6943 11.4452ZM27.4537 12.3998C26.7999 12.3998 26.243 12.2219 25.7831 11.8661C25.3231 11.5074 24.9716 10.9881 24.7286 10.3083C24.4856 9.62555 24.3641 8.80108 24.3641 7.83486C24.3641 6.87443 24.4856 6.0543 24.7286 5.37447C24.9745 4.69175 25.3274 4.17103 25.7874 3.81232C26.2503 3.45071 26.8057 3.2699 27.4537 3.2699C28.1017 3.2699 28.6557 3.45071 29.1156 3.81232C29.5785 4.17103 29.9314 4.69175 30.1744 5.37447C30.4203 6.0543 30.5433 6.87443 30.5433 7.83486C30.5433 8.80108 30.4218 9.62555 30.1788 10.3083C29.9358 10.9881 29.5843 11.5074 29.1243 11.8661C28.6644 12.2219 28.1075 12.3998 27.4537 12.3998ZM27.4537 11.4452C28.1017 11.4452 28.6051 11.1327 28.9638 10.5079C29.3225 9.88302 29.5018 8.99201 29.5018 7.83486C29.5018 7.06536 29.4194 6.41012 29.2545 5.86915C29.0925 5.32818 28.8582 4.91595 28.5515 4.63245C28.2478 4.34894 27.8818 4.20719 27.4537 4.20719C26.8115 4.20719 26.3096 4.52396 25.9479 5.1575C25.5863 5.78815 25.4055 6.6806 25.4055 7.83486C25.4055 8.60437 25.4865 9.25816 25.6485 9.79623C25.8105 10.3343 26.0434 10.7436 26.3472 11.0243C26.6538 11.3049 27.0227 11.4452 27.4537 11.4452ZM32.4706 12.2783V3.3914H33.5468V7.80015H33.6509L37.6431 3.3914H39.049L35.3172 7.40093L39.049 12.2783H37.7472L34.6576 8.14729L33.5468 9.39701V12.2783H32.4706Z" fill="#BCBCBC"/>
<line x1="65.7142" y1="9.5514" x2="661.675" y2="9.5514" stroke="#E0E0E0" stroke-width="1.01829" stroke-linecap="round" stroke-dasharray="3.05 3.05"/>
<path d="M3.59948 64.7456V53.637H4.31112V64.7456H3.59948ZM5.99478 56.9696C5.94271 56.5299 5.73153 56.1885 5.36124 55.9455C4.99095 55.7025 4.53677 55.581 3.99869 55.581C3.60526 55.581 3.26101 55.6446 2.96594 55.7719C2.67375 55.8992 2.44522 56.0742 2.28032 56.297C2.11832 56.5197 2.03732 56.7729 2.03732 57.0564C2.03732 57.2936 2.09373 57.4975 2.20655 57.6682C2.32227 57.836 2.46981 57.9763 2.64917 58.0891C2.82852 58.199 3.01656 58.2902 3.21328 58.3625C3.40999 58.4319 3.5908 58.4883 3.75569 58.5317L4.65827 58.7747C4.8897 58.8355 5.14716 58.9194 5.43067 59.0264C5.71706 59.1334 5.99044 59.2795 6.2508 59.4647C6.51405 59.6469 6.73101 59.8813 6.90169 60.1677C7.07237 60.454 7.15771 60.8055 7.15771 61.2221C7.15771 61.7023 7.03187 62.1363 6.78019 62.5239C6.53141 62.9115 6.1669 63.2196 5.68669 63.4482C5.20936 63.6767 4.62934 63.791 3.94662 63.791C3.31019 63.791 2.75909 63.6883 2.29334 63.4829C1.83048 63.2775 1.46598 62.9911 1.19983 62.6237C0.936582 62.2563 0.787599 61.8296 0.752884 61.3436H1.86375C1.89268 61.6792 2.0055 61.9569 2.20222 62.1768C2.40182 62.3937 2.6535 62.5557 2.95726 62.6628C3.2639 62.7669 3.59369 62.819 3.94662 62.819C4.35741 62.819 4.72625 62.7524 5.05315 62.6194C5.38004 62.4834 5.63895 62.2954 5.82988 62.0553C6.02081 61.8123 6.11628 61.5288 6.11628 61.2047C6.11628 60.9097 6.03383 60.6696 5.86894 60.4844C5.70404 60.2993 5.48708 60.1488 5.21804 60.0331C4.949 59.9174 4.65827 59.8162 4.34584 59.7294L3.25233 59.417C2.55804 59.2173 2.00839 58.9324 1.60339 58.5621C1.19839 58.1918 0.995886 57.7073 0.995886 57.1084C0.995886 56.6109 1.1304 56.1769 1.39944 55.8066C1.67137 55.4335 2.03588 55.1442 2.49295 54.9388C2.95292 54.7305 3.4664 54.6263 4.03341 54.6263C4.6062 54.6263 5.11534 54.729 5.56085 54.9344C6.00635 55.1369 6.35928 55.4147 6.61964 55.7676C6.88289 56.1205 7.02175 56.5212 7.03621 56.9696H5.99478ZM8.89305 63.6348V62.8537L11.8264 59.6426C12.1707 59.2665 12.4542 58.9396 12.6769 58.6619C12.8997 58.3813 13.0646 58.118 13.1716 57.8722C13.2815 57.6234 13.3365 57.363 13.3365 57.0911C13.3365 56.7786 13.2613 56.5082 13.1109 56.2796C12.9633 56.0511 12.7608 55.8746 12.5034 55.7502C12.2459 55.6258 11.9566 55.5636 11.6355 55.5636C11.2941 55.5636 10.9962 55.6345 10.7416 55.7763C10.4899 55.9151 10.2946 56.1104 10.1558 56.3621C10.0198 56.6138 9.95184 56.9088 9.95184 57.2473H8.92776C8.92776 56.7266 9.04782 56.2695 9.28793 55.8761C9.52804 55.4826 9.85493 55.176 10.2686 54.9561C10.6852 54.7363 11.1524 54.6263 11.6702 54.6263C12.1909 54.6263 12.6523 54.7363 13.0545 54.9561C13.4566 55.176 13.7719 55.4725 14.0004 55.8457C14.229 56.2189 14.3432 56.634 14.3432 57.0911C14.3432 57.418 14.2839 57.7376 14.1653 58.0501C14.0496 58.3596 13.8471 58.7053 13.5578 59.0872C13.2714 59.4661 12.8736 59.929 12.3645 60.4757L10.3684 62.6107V62.6801H14.4994V63.6348H8.89305ZM19.1909 63.7563C18.6818 63.7563 18.2233 63.655 17.8154 63.4525C17.4075 63.25 17.0806 62.9723 16.8347 62.6194C16.5888 62.2664 16.4543 61.8643 16.4311 61.413H17.4726C17.5131 61.8151 17.6953 62.1478 18.0193 62.4111C18.3462 62.6714 18.7368 62.8016 19.1909 62.8016C19.5554 62.8016 19.8794 62.7163 20.1629 62.5456C20.4493 62.3749 20.6735 62.1406 20.8355 61.8426C21.0004 61.5418 21.0829 61.2019 21.0829 60.8229C21.0829 60.4352 20.9975 60.0895 20.8269 59.7858C20.6591 59.4791 20.4276 59.2376 20.1326 59.0611C19.8375 58.8847 19.5005 58.795 19.1215 58.7921C18.8496 58.7892 18.5704 58.8311 18.284 58.9179C17.9976 59.0018 17.7619 59.1103 17.5767 59.2434L16.57 59.1219L17.1081 54.7478H21.7251V55.7025H18.0106L17.6982 58.3234H17.7503C17.9325 58.1788 18.1611 58.0587 18.4359 57.9633C18.7107 57.8678 18.9971 57.8201 19.2951 57.8201C19.8389 57.8201 20.3235 57.9503 20.7488 58.2106C21.1769 58.4681 21.5125 58.821 21.7555 59.2694C22.0014 59.7178 22.1243 60.2298 22.1243 60.8055C22.1243 61.3725 21.997 61.8788 21.7425 62.3243C21.4908 62.7669 21.1436 63.1169 20.701 63.3744C20.2584 63.629 19.755 63.7563 19.1909 63.7563ZM26.869 63.7563C26.2152 63.7563 25.6583 63.5784 25.1983 63.2225C24.7384 62.8638 24.3869 62.3445 24.1439 61.6647C23.9009 60.982 23.7794 60.1575 23.7794 59.1913C23.7794 58.2309 23.9009 57.4107 24.1439 56.7309C24.3898 56.0482 24.7427 55.5275 25.2027 55.1688C25.6655 54.8072 26.221 54.6263 26.869 54.6263C27.517 54.6263 28.071 54.8072 28.5309 55.1688C28.9938 55.5275 29.3467 56.0482 29.5897 56.7309C29.8356 57.4107 29.9586 58.2309 29.9586 59.1913C29.9586 60.1575 29.8371 60.982 29.5941 61.6647C29.3511 62.3445 28.9996 62.8638 28.5396 63.2225C28.0796 63.5784 27.5228 63.7563 26.869 63.7563ZM26.869 62.8016C27.517 62.8016 28.0203 62.4892 28.379 61.8643C28.7378 61.2395 28.9171 60.3485 28.9171 59.1913C28.9171 58.4218 28.8347 57.7666 28.6698 57.2256C28.5078 56.6846 28.2735 56.2724 27.9668 55.9889C27.6631 55.7054 27.2971 55.5636 26.869 55.5636C26.2267 55.5636 25.7248 55.8804 25.3632 56.5139C25.0016 57.1446 24.8208 58.037 24.8208 59.1913C24.8208 59.9608 24.9018 60.6146 25.0638 61.1527C25.2258 61.6908 25.4587 62.1001 25.7624 62.3807C26.0691 62.6613 26.4379 62.8016 26.869 62.8016ZM31.8859 63.6348V54.7478H32.9621V59.1566H33.0662L37.0584 54.7478H38.4643L34.7325 58.7574L38.4643 63.6348H37.1625L34.0729 59.5037L32.9621 60.7535V63.6348H31.8859Z" fill="#BCBCBC"/>
<line x1="65.7142" y1="60.9078" x2="661.675" y2="60.9078" stroke="#E0E0E0" stroke-width="1.01829" stroke-linecap="round" stroke-dasharray="3.05 3.05"/>
<path d="M3.59948 116.103V104.994H4.31112V116.103H3.59948ZM5.99478 108.327C5.94271 107.887 5.73153 107.546 5.36124 107.303C4.99095 107.06 4.53677 106.938 3.99869 106.938C3.60526 106.938 3.26101 107.002 2.96594 107.129C2.67375 107.257 2.44522 107.432 2.28032 107.654C2.11832 107.877 2.03732 108.13 2.03732 108.414C2.03732 108.651 2.09373 108.855 2.20655 109.026C2.32227 109.193 2.46981 109.334 2.64917 109.447C2.82852 109.556 3.01656 109.648 3.21328 109.72C3.40999 109.789 3.5908 109.846 3.75569 109.889L4.65827 110.132C4.8897 110.193 5.14716 110.277 5.43067 110.384C5.71706 110.491 5.99044 110.637 6.2508 110.822C6.51405 111.004 6.73101 111.239 6.90169 111.525C7.07237 111.811 7.15771 112.163 7.15771 112.58C7.15771 113.06 7.03187 113.494 6.78019 113.881C6.53141 114.269 6.1669 114.577 5.68669 114.806C5.20936 115.034 4.62934 115.148 3.94662 115.148C3.31019 115.148 2.75909 115.046 2.29334 114.84C1.83048 114.635 1.46598 114.349 1.19983 113.981C0.936582 113.614 0.787599 113.187 0.752884 112.701H1.86375C1.89268 113.037 2.0055 113.314 2.20222 113.534C2.40182 113.751 2.6535 113.913 2.95726 114.02C3.2639 114.124 3.59369 114.176 3.94662 114.176C4.35741 114.176 4.72625 114.11 5.05315 113.977C5.38004 113.841 5.63895 113.653 5.82988 113.413C6.02081 113.17 6.11628 112.886 6.11628 112.562C6.11628 112.267 6.03383 112.027 5.86894 111.842C5.70404 111.657 5.48708 111.506 5.21804 111.391C4.949 111.275 4.65827 111.174 4.34584 111.087L3.25233 110.774C2.55804 110.575 2.00839 110.29 1.60339 109.92C1.19839 109.549 0.995886 109.065 0.995886 108.466C0.995886 107.968 1.1304 107.534 1.39944 107.164C1.67137 106.791 2.03588 106.502 2.49295 106.296C2.95292 106.088 3.4664 105.984 4.03341 105.984C4.6062 105.984 5.11534 106.086 5.56085 106.292C6.00635 106.494 6.35928 106.772 6.61964 107.125C6.88289 107.478 7.02175 107.879 7.03621 108.327H5.99478ZM8.89305 114.992V114.211L11.8264 111C12.1707 110.624 12.4542 110.297 12.6769 110.019C12.8997 109.739 13.0646 109.475 13.1716 109.23C13.2815 108.981 13.3365 108.72 13.3365 108.448C13.3365 108.136 13.2613 107.866 13.1109 107.637C12.9633 107.409 12.7608 107.232 12.5034 107.108C12.2459 106.983 11.9566 106.921 11.6355 106.921C11.2941 106.921 10.9962 106.992 10.7416 107.134C10.4899 107.273 10.2946 107.468 10.1558 107.719C10.0198 107.971 9.95184 108.266 9.95184 108.605H8.92776C8.92776 108.084 9.04782 107.627 9.28793 107.233C9.52804 106.84 9.85493 106.533 10.2686 106.314C10.6852 106.094 11.1524 105.984 11.6702 105.984C12.1909 105.984 12.6523 106.094 13.0545 106.314C13.4566 106.533 13.7719 106.83 14.0004 107.203C14.229 107.576 14.3432 107.991 14.3432 108.448C14.3432 108.775 14.2839 109.095 14.1653 109.407C14.0496 109.717 13.8471 110.063 13.5578 110.445C13.2714 110.824 12.8736 111.286 12.3645 111.833L10.3684 113.968V114.038H14.4994V114.992H8.89305ZM19.3124 115.114C18.6586 115.114 18.1018 114.936 17.6418 114.58C17.1818 114.221 16.8304 113.702 16.5873 113.022C16.3443 112.339 16.2228 111.515 16.2228 110.549C16.2228 109.588 16.3443 108.768 16.5873 108.088C16.8332 107.406 17.1862 106.885 17.6461 106.526C18.109 106.165 18.6644 105.984 19.3124 105.984C19.9604 105.984 20.5144 106.165 20.9744 106.526C21.4373 106.885 21.7902 107.406 22.0332 108.088C22.2791 108.768 22.402 109.588 22.402 110.549C22.402 111.515 22.2805 112.339 22.0375 113.022C21.7945 113.702 21.443 114.221 20.9831 114.58C20.5231 114.936 19.9662 115.114 19.3124 115.114ZM19.3124 114.159C19.9604 114.159 20.4638 113.847 20.8225 113.222C21.1812 112.597 21.3606 111.706 21.3606 110.549C21.3606 109.779 21.2781 109.124 21.1133 108.583C20.9513 108.042 20.7169 107.63 20.4103 107.346C20.1065 107.063 19.7406 106.921 19.3124 106.921C18.6702 106.921 18.1683 107.238 17.8067 107.871C17.4451 108.502 17.2643 109.394 17.2643 110.549C17.2643 111.318 17.3453 111.972 17.5073 112.51C17.6693 113.048 17.9022 113.458 18.2059 113.738C18.5126 114.019 18.8814 114.159 19.3124 114.159ZM27.0718 115.114C26.418 115.114 25.8612 114.936 25.4012 114.58C24.9412 114.221 24.5897 113.702 24.3467 113.022C24.1037 112.339 23.9822 111.515 23.9822 110.549C23.9822 109.588 24.1037 108.768 24.3467 108.088C24.5926 107.406 24.9456 106.885 25.4055 106.526C25.8684 106.165 26.4238 105.984 27.0718 105.984C27.7198 105.984 28.2738 106.165 28.7338 106.526C29.1966 106.885 29.5496 107.406 29.7926 108.088C30.0385 108.768 30.1614 109.588 30.1614 110.549C30.1614 111.515 30.0399 112.339 29.7969 113.022C29.5539 113.702 29.2024 114.221 28.7425 114.58C28.2825 114.936 27.7256 115.114 27.0718 115.114ZM27.0718 114.159C27.7198 114.159 28.2232 113.847 28.5819 113.222C28.9406 112.597 29.12 111.706 29.12 110.549C29.12 109.779 29.0375 109.124 28.8726 108.583C28.7106 108.042 28.4763 107.63 28.1697 107.346C27.8659 107.063 27.5 106.921 27.0718 106.921C26.4296 106.921 25.9277 107.238 25.5661 107.871C25.2045 108.502 25.0237 109.394 25.0237 110.549C25.0237 111.318 25.1047 111.972 25.2667 112.51C25.4287 113.048 25.6616 113.458 25.9653 113.738C26.2719 114.019 26.6408 114.159 27.0718 114.159ZM32.0888 114.992V106.105H33.1649V110.514H33.2691L37.2612 106.105H38.6672L34.9354 110.115L38.6672 114.992H37.3654L34.2758 110.861L33.1649 112.111V114.992H32.0888Z" fill="#BCBCBC"/>
<line x1="65.7142" y1="112.265" x2="661.675" y2="112.265" stroke="#E0E0E0" stroke-width="1.01829" stroke-linecap="round" stroke-dasharray="3.05 3.05"/>
<path d="M3.59948 167.459V156.35H4.31112V167.459H3.59948ZM5.99478 159.682C5.94271 159.243 5.73153 158.901 5.36124 158.658C4.99095 158.415 4.53677 158.294 3.99869 158.294C3.60526 158.294 3.26101 158.358 2.96594 158.485C2.67375 158.612 2.44522 158.787 2.28032 159.01C2.11832 159.233 2.03732 159.486 2.03732 159.769C2.03732 160.006 2.09373 160.21 2.20655 160.381C2.32227 160.549 2.46981 160.689 2.64917 160.802C2.82852 160.912 3.01656 161.003 3.21328 161.075C3.40999 161.145 3.5908 161.201 3.75569 161.245L4.65827 161.488C4.8897 161.548 5.14716 161.632 5.43067 161.739C5.71706 161.846 5.99044 161.992 6.2508 162.178C6.51405 162.36 6.73101 162.594 6.90169 162.881C7.07237 163.167 7.15771 163.518 7.15771 163.935C7.15771 164.415 7.03187 164.849 6.78019 165.237C6.53141 165.624 6.1669 165.933 5.68669 166.161C5.20936 166.39 4.62934 166.504 3.94662 166.504C3.31019 166.504 2.75909 166.401 2.29334 166.196C1.83048 165.99 1.46598 165.704 1.19983 165.337C0.936582 164.969 0.787599 164.543 0.752884 164.056H1.86375C1.89268 164.392 2.0055 164.67 2.20222 164.89C2.40182 165.107 2.6535 165.269 2.95726 165.376C3.2639 165.48 3.59369 165.532 3.94662 165.532C4.35741 165.532 4.72625 165.465 5.05315 165.332C5.38004 165.196 5.63895 165.008 5.82988 164.768C6.02081 164.525 6.11628 164.242 6.11628 163.918C6.11628 163.623 6.03383 163.382 5.86894 163.197C5.70404 163.012 5.48708 162.862 5.21804 162.746C4.949 162.63 4.65827 162.529 4.34584 162.442L3.25233 162.13C2.55804 161.93 2.00839 161.645 1.60339 161.275C1.19839 160.905 0.995886 160.42 0.995886 159.821C0.995886 159.324 1.1304 158.89 1.39944 158.52C1.67137 158.146 2.03588 157.857 2.49295 157.652C2.95292 157.443 3.4664 157.339 4.03341 157.339C4.6062 157.339 5.11534 157.442 5.56085 157.647C6.00635 157.85 6.35928 158.128 6.61964 158.48C6.88289 158.833 7.02175 159.234 7.03621 159.682H5.99478ZM12.0174 157.461V166.348H10.9412V158.589H10.8891L8.71948 160.03V158.936L10.9412 157.461H12.0174ZM17.4726 166.469C16.9634 166.469 16.5049 166.368 16.097 166.165C15.6891 165.963 15.3622 165.685 15.1163 165.332C14.8704 164.979 14.7359 164.577 14.7128 164.126H15.7542C15.7947 164.528 15.977 164.861 16.301 165.124C16.6279 165.384 17.0184 165.515 17.4726 165.515C17.8371 165.515 18.1611 165.429 18.4446 165.258C18.731 165.088 18.9552 164.853 19.1172 164.556C19.2821 164.255 19.3645 163.915 19.3645 163.536C19.3645 163.148 19.2792 162.802 19.1085 162.499C18.9407 162.192 18.7093 161.95 18.4142 161.774C18.1191 161.598 17.7821 161.508 17.4031 161.505C17.1312 161.502 16.852 161.544 16.5657 161.631C16.2793 161.715 16.0435 161.823 15.8583 161.956L14.8516 161.835L15.3897 157.461H20.0067V158.415H16.2923L15.9798 161.036H16.0319C16.2142 160.892 16.4427 160.772 16.7175 160.676C16.9924 160.581 17.2787 160.533 17.5767 160.533C18.1206 160.533 18.6051 160.663 19.0304 160.924C19.4585 161.181 19.7941 161.534 20.0371 161.982C20.283 162.431 20.4059 162.943 20.4059 163.518C20.4059 164.085 20.2787 164.592 20.0241 165.037C19.7724 165.48 19.4253 165.83 18.9827 166.087C18.54 166.342 18.0367 166.469 17.4726 166.469ZM25.1506 166.469C24.4968 166.469 23.9399 166.291 23.48 165.935C23.02 165.577 22.6685 165.057 22.4255 164.378C22.1825 163.695 22.061 162.87 22.061 161.904C22.061 160.944 22.1825 160.124 22.4255 159.444C22.6714 158.761 23.0243 158.24 23.4843 157.882C23.9472 157.52 24.5026 157.339 25.1506 157.339C25.7986 157.339 26.3526 157.52 26.8126 157.882C27.2754 158.24 27.6283 158.761 27.8713 159.444C28.1172 160.124 28.2402 160.944 28.2402 161.904C28.2402 162.87 28.1187 163.695 27.8757 164.378C27.6327 165.057 27.2812 165.577 26.8212 165.935C26.3613 166.291 25.8044 166.469 25.1506 166.469ZM25.1506 165.515C25.7986 165.515 26.302 165.202 26.6607 164.577C27.0194 163.952 27.1988 163.061 27.1988 161.904C27.1988 161.135 27.1163 160.479 26.9514 159.938C26.7894 159.398 26.5551 158.985 26.2484 158.702C25.9447 158.418 25.5787 158.277 25.1506 158.277C24.5084 158.277 24.0065 158.593 23.6449 159.227C23.2832 159.857 23.1024 160.75 23.1024 161.904C23.1024 162.674 23.1834 163.327 23.3454 163.866C23.5074 164.404 23.7403 164.813 24.0441 165.094C24.3507 165.374 24.7196 165.515 25.1506 165.515ZM30.1675 166.348V157.461H31.2437V161.869H31.3478L35.34 157.461H36.7459L33.0141 161.47L36.7459 166.348H35.4441L32.3546 162.217L31.2437 163.466V166.348H30.1675Z" fill="#BCBCBC"/>
<line x1="65.7142" y1="163.621" x2="661.675" y2="163.621" stroke="#E0E0E0" stroke-width="1.01829" stroke-linecap="round" stroke-dasharray="3.05 3.05"/>
<path d="M3.59948 218.816V207.707H4.31112V218.816H3.59948ZM5.99478 211.04C5.94271 210.6 5.73153 210.259 5.36124 210.016C4.99095 209.773 4.53677 209.651 3.99869 209.651C3.60526 209.651 3.26101 209.715 2.96594 209.842C2.67375 209.97 2.44522 210.145 2.28032 210.367C2.11832 210.59 2.03732 210.843 2.03732 211.127C2.03732 211.364 2.09373 211.568 2.20655 211.739C2.32227 211.906 2.46981 212.047 2.64917 212.159C2.82852 212.269 3.01656 212.36 3.21328 212.433C3.40999 212.502 3.5908 212.559 3.75569 212.602L4.65827 212.845C4.8897 212.906 5.14716 212.99 5.43067 213.097C5.71706 213.204 5.99044 213.35 6.2508 213.535C6.51405 213.717 6.73101 213.952 6.90169 214.238C7.07237 214.524 7.15771 214.876 7.15771 215.292C7.15771 215.773 7.03187 216.207 6.78019 216.594C6.53141 216.982 6.1669 217.29 5.68669 217.518C5.20936 217.747 4.62934 217.861 3.94662 217.861C3.31019 217.861 2.75909 217.759 2.29334 217.553C1.83048 217.348 1.46598 217.061 1.19983 216.694C0.936582 216.327 0.787599 215.9 0.752884 215.414H1.86375C1.89268 215.749 2.0055 216.027 2.20222 216.247C2.40182 216.464 2.6535 216.626 2.95726 216.733C3.2639 216.837 3.59369 216.889 3.94662 216.889C4.35741 216.889 4.72625 216.823 5.05315 216.69C5.38004 216.554 5.63895 216.366 5.82988 216.126C6.02081 215.883 6.11628 215.599 6.11628 215.275C6.11628 214.98 6.03383 214.74 5.86894 214.555C5.70404 214.37 5.48708 214.219 5.21804 214.103C4.949 213.988 4.65827 213.886 4.34584 213.8L3.25233 213.487C2.55804 213.288 2.00839 213.003 1.60339 212.632C1.19839 212.262 0.995886 211.778 0.995886 211.179C0.995886 210.681 1.1304 210.247 1.39944 209.877C1.67137 209.504 2.03588 209.214 2.49295 209.009C2.95292 208.801 3.4664 208.697 4.03341 208.697C4.6062 208.697 5.11534 208.799 5.56085 209.005C6.00635 209.207 6.35928 209.485 6.61964 209.838C6.88289 210.191 7.02175 210.591 7.03621 211.04H5.99478ZM12.0174 208.818V217.705H10.9412V209.946H10.8891L8.71948 211.387V210.294L10.9412 208.818H12.0174ZM17.5941 217.827C16.9403 217.827 16.3834 217.649 15.9234 217.293C15.4635 216.934 15.112 216.415 14.869 215.735C14.626 215.052 14.5045 214.228 14.5045 213.262C14.5045 212.301 14.626 211.481 14.869 210.801C15.1149 210.119 15.4678 209.598 15.9278 209.239C16.3906 208.877 16.9461 208.697 17.5941 208.697C18.2421 208.697 18.7961 208.877 19.256 209.239C19.7189 209.598 20.0718 210.119 20.3148 210.801C20.5607 211.481 20.6837 212.301 20.6837 213.262C20.6837 214.228 20.5622 215.052 20.3192 215.735C20.0762 216.415 19.7247 216.934 19.2647 217.293C18.8047 217.649 18.2479 217.827 17.5941 217.827ZM17.5941 216.872C18.2421 216.872 18.7454 216.559 19.1042 215.935C19.4629 215.31 19.6422 214.419 19.6422 213.262C19.6422 212.492 19.5598 211.837 19.3949 211.296C19.2329 210.755 18.9986 210.343 18.6919 210.059C18.3882 209.776 18.0222 209.634 17.5941 209.634C16.9519 209.634 16.4499 209.951 16.0883 210.584C15.7267 211.215 15.5459 212.107 15.5459 213.262C15.5459 214.031 15.6269 214.685 15.7889 215.223C15.9509 215.761 16.1838 216.17 16.4875 216.451C16.7942 216.732 17.163 216.872 17.5941 216.872ZM25.3535 217.827C24.6997 217.827 24.1428 217.649 23.6828 217.293C23.2229 216.934 22.8714 216.415 22.6284 215.735C22.3854 215.052 22.2639 214.228 22.2639 213.262C22.2639 212.301 22.3854 211.481 22.6284 210.801C22.8743 210.119 23.2272 209.598 23.6872 209.239C24.15 208.877 24.7055 208.697 25.3535 208.697C26.0015 208.697 26.5555 208.877 27.0154 209.239C27.4783 209.598 27.8312 210.119 28.0742 210.801C28.3201 211.481 28.4431 212.301 28.4431 213.262C28.4431 214.228 28.3216 215.052 28.0786 215.735C27.8356 216.415 27.4841 216.934 27.0241 217.293C26.5641 217.649 26.0073 217.827 25.3535 217.827ZM25.3535 216.872C26.0015 216.872 26.5048 216.559 26.8635 215.935C27.2223 215.31 27.4016 214.419 27.4016 213.262C27.4016 212.492 27.3192 211.837 27.1543 211.296C26.9923 210.755 26.758 210.343 26.4513 210.059C26.1476 209.776 25.7816 209.634 25.3535 209.634C24.7112 209.634 24.2093 209.951 23.8477 210.584C23.4861 211.215 23.3053 212.107 23.3053 213.262C23.3053 214.031 23.3863 214.685 23.5483 215.223C23.7103 215.761 23.9432 216.17 24.2469 216.451C24.5536 216.732 24.9224 216.872 25.3535 216.872ZM30.3704 217.705V208.818H31.4466V213.227H31.5507L35.5429 208.818H36.9488L33.217 212.828L36.9488 217.705H35.647L32.5574 213.574L31.4466 214.824V217.705H30.3704Z" fill="#BCBCBC"/>
<path d="M73.2324 242.16V241.379L76.1658 238.168C76.5101 237.792 76.7936 237.465 77.0163 237.187C77.2391 236.907 77.404 236.643 77.511 236.398C77.6209 236.149 77.6759 235.888 77.6759 235.616C77.6759 235.304 77.6007 235.034 77.4502 234.805C77.3027 234.576 77.1002 234.4 76.8427 234.276C76.5853 234.151 76.296 234.089 75.9749 234.089C75.6335 234.089 75.3356 234.16 75.081 234.302C74.8293 234.441 74.634 234.636 74.4952 234.887C74.3592 235.139 74.2912 235.434 74.2912 235.773H73.2671C73.2671 235.252 73.3872 234.795 73.6273 234.401C73.8674 234.008 74.1943 233.701 74.608 233.482C75.0246 233.262 75.4918 233.152 76.0096 233.152C76.5303 233.152 76.9917 233.262 77.3938 233.482C77.7959 233.701 78.1113 233.998 78.3398 234.371C78.5683 234.744 78.6826 235.159 78.6826 235.616C78.6826 235.943 78.6233 236.263 78.5047 236.575C78.389 236.885 78.1865 237.231 77.8972 237.613C77.6108 237.992 77.213 238.454 76.7039 239.001L74.7078 241.136V241.206H78.8388V242.16H73.2324ZM80.3539 240.338V239.452L84.2593 233.273H84.9015V234.644H84.4676L81.5169 239.314V239.383H86.7761V240.338H80.3539ZM84.537 242.16V240.069V239.656V233.273H85.5611V242.16H84.537Z" fill="#BCBCBC"/>
<path d="M125.35 242.16V241.379L128.283 238.168C128.627 237.792 128.911 237.465 129.134 237.187C129.356 236.907 129.521 236.643 129.628 236.398C129.738 236.149 129.793 235.888 129.793 235.616C129.793 235.304 129.718 235.034 129.567 234.805C129.42 234.576 129.217 234.4 128.96 234.276C128.702 234.151 128.413 234.089 128.092 234.089C127.751 234.089 127.453 234.16 127.198 234.302C126.946 234.441 126.751 234.636 126.612 234.887C126.476 235.139 126.408 235.434 126.408 235.773H125.384C125.384 235.252 125.504 234.795 125.745 234.401C125.985 234.008 126.312 233.701 126.725 233.482C127.142 233.262 127.609 233.152 128.127 233.152C128.648 233.152 129.109 233.262 129.511 233.482C129.913 233.701 130.228 233.998 130.457 234.371C130.686 234.744 130.8 235.159 130.8 235.616C130.8 235.943 130.74 236.263 130.622 236.575C130.506 236.885 130.304 237.231 130.014 237.613C129.728 237.992 129.33 238.454 128.821 239.001L126.825 241.136V241.206H130.956V242.16H125.35ZM135.648 242.282C135.138 242.282 134.68 242.18 134.272 241.978C133.864 241.775 133.537 241.498 133.291 241.145C133.045 240.792 132.911 240.39 132.888 239.938H133.929C133.97 240.341 134.152 240.673 134.476 240.936C134.803 241.197 135.193 241.327 135.648 241.327C136.012 241.327 136.336 241.242 136.62 241.071C136.906 240.9 137.13 240.666 137.292 240.368C137.457 240.067 137.539 239.727 137.539 239.348C137.539 238.961 137.454 238.615 137.283 238.311C137.116 238.005 136.884 237.763 136.589 237.587C136.294 237.41 135.957 237.32 135.578 237.317C135.306 237.315 135.027 237.357 134.741 237.443C134.454 237.527 134.218 237.636 134.033 237.769L133.027 237.647L133.565 233.273H138.182V234.228H134.467L134.155 236.849H134.207C134.389 236.704 134.618 236.584 134.892 236.489C135.167 236.393 135.454 236.345 135.752 236.345C136.296 236.345 136.78 236.476 137.205 236.736C137.633 236.993 137.969 237.346 138.212 237.795C138.458 238.243 138.581 238.755 138.581 239.331C138.581 239.898 138.454 240.404 138.199 240.85C137.947 241.292 137.6 241.642 137.158 241.9C136.715 242.154 136.212 242.282 135.648 242.282Z" fill="#BCBCBC"/>
<path d="M177.467 242.16V241.379L180.4 238.168C180.744 237.792 181.028 237.465 181.251 237.187C181.473 236.907 181.638 236.643 181.745 236.398C181.855 236.149 181.91 235.888 181.91 235.616C181.91 235.304 181.835 235.034 181.685 234.805C181.537 234.576 181.335 234.4 181.077 234.276C180.82 234.151 180.53 234.089 180.209 234.089C179.868 234.089 179.57 234.16 179.315 234.302C179.064 234.441 178.868 234.636 178.73 234.887C178.594 235.139 178.526 235.434 178.526 235.773H177.502C177.502 235.252 177.622 234.795 177.862 234.401C178.102 234.008 178.429 233.701 178.842 233.482C179.259 233.262 179.726 233.152 180.244 233.152C180.765 233.152 181.226 233.262 181.628 233.482C182.03 233.701 182.346 233.998 182.574 234.371C182.803 234.744 182.917 235.159 182.917 235.616C182.917 235.943 182.858 236.263 182.739 236.575C182.623 236.885 182.421 237.231 182.132 237.613C181.845 237.992 181.447 238.454 180.938 239.001L178.942 241.136V241.206H183.073V242.16H177.467ZM187.938 242.282C187.574 242.276 187.209 242.206 186.845 242.073C186.48 241.94 186.148 241.716 185.847 241.401C185.546 241.083 185.304 240.653 185.122 240.112C184.94 239.568 184.849 238.885 184.849 238.064C184.849 237.277 184.922 236.58 185.07 235.972C185.218 235.362 185.432 234.848 185.712 234.432C185.993 234.012 186.331 233.694 186.728 233.477C187.127 233.26 187.577 233.152 188.077 233.152C188.575 233.152 189.017 233.252 189.405 233.451C189.795 233.648 190.114 233.923 190.36 234.276C190.606 234.629 190.765 235.035 190.837 235.495H189.778C189.68 235.096 189.489 234.765 189.205 234.501C188.922 234.238 188.546 234.106 188.077 234.106C187.389 234.106 186.846 234.406 186.45 235.005C186.056 235.603 185.858 236.444 185.855 237.526H185.925C186.087 237.28 186.279 237.07 186.502 236.897C186.728 236.72 186.976 236.584 187.248 236.489C187.52 236.393 187.808 236.345 188.112 236.345C188.621 236.345 189.087 236.473 189.509 236.727C189.931 236.979 190.27 237.328 190.525 237.773C190.779 238.216 190.906 238.723 190.906 239.296C190.906 239.846 190.783 240.349 190.538 240.806C190.292 241.26 189.946 241.622 189.5 241.891C189.058 242.157 188.537 242.287 187.938 242.282ZM187.938 241.327C188.303 241.327 188.63 241.236 188.919 241.054C189.211 240.871 189.441 240.627 189.609 240.32C189.78 240.014 189.865 239.672 189.865 239.296C189.865 238.929 189.782 238.595 189.618 238.294C189.456 237.99 189.231 237.749 188.945 237.569C188.661 237.39 188.337 237.3 187.973 237.3C187.698 237.3 187.442 237.355 187.205 237.465C186.968 237.572 186.759 237.72 186.58 237.908C186.404 238.096 186.265 238.311 186.163 238.554C186.062 238.794 186.012 239.047 186.012 239.314C186.012 239.666 186.094 239.996 186.259 240.303C186.427 240.61 186.655 240.857 186.945 241.045C187.237 241.233 187.568 241.327 187.938 241.327Z" fill="#BCBCBC"/>
<path d="M229.584 242.16V241.379L232.517 238.168C232.862 237.792 233.145 237.465 233.368 237.187C233.591 236.907 233.756 236.643 233.863 236.398C233.972 236.149 234.027 235.888 234.027 235.616C234.027 235.304 233.952 235.034 233.802 234.805C233.654 234.576 233.452 234.4 233.194 234.276C232.937 234.151 232.648 234.089 232.326 234.089C231.985 234.089 231.687 234.16 231.433 234.302C231.181 234.441 230.986 234.636 230.847 234.887C230.711 235.139 230.643 235.434 230.643 235.773H229.619C229.619 235.252 229.739 234.795 229.979 234.401C230.219 234.008 230.546 233.701 230.96 233.482C231.376 233.262 231.843 233.152 232.361 233.152C232.882 233.152 233.343 233.262 233.745 233.482C234.148 233.701 234.463 233.998 234.691 234.371C234.92 234.744 235.034 235.159 235.034 235.616C235.034 235.943 234.975 236.263 234.856 236.575C234.741 236.885 234.538 237.231 234.249 237.613C233.962 237.992 233.565 238.454 233.055 239.001L231.059 241.136V241.206H235.19V242.16H229.584ZM237.382 242.16L241.357 234.297V234.228H236.775V233.273H242.468V234.28L238.511 242.16H237.382Z" fill="#BCBCBC"/>
<path d="M281.701 242.16V241.379L284.635 238.168C284.979 237.792 285.262 237.465 285.485 237.187C285.708 236.907 285.873 236.643 285.98 236.398C286.09 236.149 286.145 235.888 286.145 235.616C286.145 235.304 286.069 235.034 285.919 234.805C285.771 234.576 285.569 234.4 285.311 234.276C285.054 234.151 284.765 234.089 284.444 234.089C284.102 234.089 283.804 234.16 283.55 234.302C283.298 234.441 283.103 234.636 282.964 234.887C282.828 235.139 282.76 235.434 282.76 235.773H281.736C281.736 235.252 281.856 234.795 282.096 234.401C282.336 234.008 282.663 233.701 283.077 233.482C283.493 233.262 283.961 233.152 284.478 233.152C284.999 233.152 285.46 233.262 285.863 233.482C286.265 233.701 286.58 233.998 286.809 234.371C287.037 234.744 287.151 235.159 287.151 235.616C287.151 235.943 287.092 236.263 286.973 236.575C286.858 236.885 286.655 237.231 286.366 237.613C286.08 237.992 285.682 238.454 285.173 239.001L283.177 241.136V241.206H287.308V242.16H281.701ZM292.069 242.282C291.473 242.282 290.946 242.176 290.489 241.965C290.035 241.751 289.68 241.457 289.426 241.084C289.171 240.708 289.045 240.28 289.048 239.8C289.045 239.423 289.119 239.076 289.27 238.758C289.42 238.437 289.625 238.169 289.886 237.955C290.149 237.738 290.443 237.601 290.767 237.543V237.491C290.341 237.381 290.003 237.142 289.751 236.775C289.5 236.405 289.375 235.984 289.378 235.512C289.375 235.061 289.49 234.657 289.721 234.302C289.952 233.946 290.271 233.665 290.676 233.46C291.083 233.254 291.548 233.152 292.069 233.152C292.583 233.152 293.043 233.254 293.448 233.46C293.853 233.665 294.172 233.946 294.403 234.302C294.637 234.657 294.756 235.061 294.759 235.512C294.756 235.984 294.627 236.405 294.373 236.775C294.121 237.142 293.787 237.381 293.37 237.491V237.543C293.691 237.601 293.981 237.738 294.238 237.955C294.496 238.169 294.701 238.437 294.854 238.758C295.008 239.076 295.086 239.423 295.089 239.8C295.086 240.28 294.956 240.708 294.698 241.084C294.444 241.457 294.089 241.751 293.635 241.965C293.184 242.176 292.662 242.282 292.069 242.282ZM292.069 241.327C292.471 241.327 292.818 241.262 293.11 241.132C293.402 241.002 293.628 240.818 293.787 240.581C293.946 240.343 294.027 240.066 294.03 239.747C294.027 239.412 293.94 239.115 293.77 238.858C293.599 238.6 293.366 238.398 293.071 238.25C292.779 238.103 292.445 238.029 292.069 238.029C291.69 238.029 291.351 238.103 291.053 238.25C290.758 238.398 290.525 238.6 290.354 238.858C290.187 239.115 290.104 239.412 290.107 239.747C290.104 240.066 290.181 240.343 290.337 240.581C290.496 240.818 290.723 241.002 291.018 241.132C291.313 241.262 291.664 241.327 292.069 241.327ZM292.069 237.109C292.387 237.109 292.669 237.046 292.915 236.918C293.163 236.791 293.359 236.613 293.5 236.385C293.642 236.156 293.715 235.888 293.717 235.582C293.715 235.281 293.644 235.019 293.505 234.796C293.366 234.571 293.174 234.397 292.928 234.276C292.682 234.151 292.395 234.089 292.069 234.089C291.736 234.089 291.445 234.151 291.196 234.276C290.948 234.397 290.755 234.571 290.619 234.796C290.483 235.019 290.417 235.281 290.42 235.582C290.417 235.888 290.485 236.156 290.624 236.385C290.765 236.613 290.961 236.791 291.209 236.918C291.458 237.046 291.745 237.109 292.069 237.109Z" fill="#BCBCBC"/>
<path d="M333.818 242.16V241.379L336.752 238.168C337.096 237.792 337.38 237.465 337.602 237.187C337.825 236.907 337.99 236.643 338.097 236.398C338.207 236.149 338.262 235.888 338.262 235.616C338.262 235.304 338.187 235.034 338.036 234.805C337.889 234.576 337.686 234.4 337.429 234.276C337.171 234.151 336.882 234.089 336.561 234.089C336.219 234.089 335.921 234.16 335.667 234.302C335.415 234.441 335.22 234.636 335.081 234.887C334.945 235.139 334.877 235.434 334.877 235.773H333.853C333.853 235.252 333.973 234.795 334.213 234.401C334.453 234.008 334.78 233.701 335.194 233.482C335.611 233.262 336.078 233.152 336.596 233.152C337.116 233.152 337.578 233.262 337.98 233.482C338.382 233.701 338.697 233.998 338.926 234.371C339.154 234.744 339.269 235.159 339.269 235.616C339.269 235.943 339.209 236.263 339.091 236.575C338.975 236.885 338.772 237.231 338.483 237.613C338.197 237.992 337.799 238.454 337.29 239.001L335.294 241.136V241.206H339.425V242.16H333.818ZM344.168 233.152C344.533 233.155 344.897 233.224 345.262 233.36C345.626 233.496 345.959 233.722 346.26 234.037C346.561 234.349 346.802 234.776 346.985 235.317C347.167 235.858 347.258 236.536 347.258 237.352C347.258 238.142 347.183 238.843 347.032 239.457C346.885 240.067 346.671 240.582 346.39 241.002C346.112 241.421 345.774 241.739 345.375 241.956C344.978 242.173 344.53 242.282 344.029 242.282C343.532 242.282 343.088 242.183 342.697 241.987C342.31 241.787 341.991 241.511 341.743 241.158C341.497 240.802 341.339 240.39 341.27 239.921H342.328C342.424 240.329 342.613 240.666 342.897 240.932C343.183 241.195 343.561 241.327 344.029 241.327C344.715 241.327 345.256 241.028 345.652 240.429C346.052 239.83 346.251 238.984 346.251 237.89H346.182C346.02 238.133 345.827 238.343 345.605 238.519C345.382 238.696 345.135 238.832 344.863 238.927C344.591 239.023 344.301 239.071 343.995 239.071C343.486 239.071 343.018 238.945 342.593 238.693C342.171 238.438 341.832 238.09 341.578 237.647C341.326 237.202 341.2 236.693 341.2 236.12C341.2 235.576 341.322 235.078 341.565 234.627C341.811 234.173 342.155 233.811 342.598 233.542C343.043 233.273 343.567 233.143 344.168 233.152ZM344.168 234.106C343.804 234.106 343.475 234.198 343.183 234.38C342.894 234.559 342.664 234.802 342.493 235.109C342.326 235.413 342.242 235.75 342.242 236.12C342.242 236.49 342.323 236.827 342.485 237.131C342.65 237.432 342.874 237.672 343.157 237.851C343.444 238.028 343.769 238.116 344.134 238.116C344.408 238.116 344.664 238.062 344.902 237.955C345.139 237.845 345.346 237.696 345.522 237.508C345.702 237.317 345.842 237.102 345.943 236.862C346.044 236.619 346.095 236.366 346.095 236.102C346.095 235.755 346.011 235.43 345.843 235.126C345.678 234.822 345.45 234.576 345.158 234.388C344.868 234.2 344.539 234.106 344.168 234.106Z" fill="#BCBCBC"/>
<path d="M388.938 242.282C388.366 242.282 387.855 242.183 387.407 241.987C386.961 241.79 386.607 241.516 386.343 241.166C386.083 240.814 385.941 240.404 385.918 239.938H387.012C387.035 240.225 387.133 240.472 387.307 240.68C387.48 240.886 387.707 241.045 387.988 241.158C388.269 241.271 388.58 241.327 388.921 241.327C389.303 241.327 389.641 241.26 389.936 241.127C390.231 240.994 390.463 240.809 390.631 240.572C390.798 240.335 390.882 240.06 390.882 239.747C390.882 239.421 390.801 239.133 390.639 238.884C390.477 238.632 390.24 238.436 389.928 238.294C389.615 238.152 389.233 238.081 388.782 238.081H388.071V237.127H388.782C389.135 237.127 389.445 237.063 389.711 236.936C389.98 236.808 390.19 236.629 390.34 236.398C390.493 236.166 390.57 235.894 390.57 235.582C390.57 235.281 390.503 235.019 390.37 234.796C390.237 234.574 390.049 234.4 389.806 234.276C389.566 234.151 389.283 234.089 388.956 234.089C388.649 234.089 388.36 234.145 388.088 234.258C387.819 234.368 387.599 234.529 387.428 234.74C387.258 234.948 387.165 235.2 387.151 235.495H386.109C386.126 235.029 386.267 234.621 386.53 234.271C386.793 233.918 387.138 233.644 387.563 233.447C387.991 233.25 388.461 233.152 388.973 233.152C389.523 233.152 389.994 233.263 390.388 233.486C390.781 233.706 391.083 233.996 391.295 234.358C391.506 234.72 391.611 235.11 391.611 235.53C391.611 236.03 391.48 236.457 391.217 236.81C390.956 237.163 390.602 237.407 390.153 237.543V237.613C390.715 237.705 391.153 237.944 391.468 238.329C391.784 238.71 391.941 239.183 391.941 239.747C391.941 240.231 391.81 240.665 391.546 241.049C391.286 241.431 390.93 241.732 390.479 241.952C390.028 242.172 389.514 242.282 388.938 242.282ZM396.737 242.282C396.083 242.282 395.526 242.104 395.066 241.748C394.606 241.389 394.255 240.87 394.012 240.19C393.769 239.507 393.647 238.683 393.647 237.717C393.647 236.756 393.769 235.936 394.012 235.256C394.258 234.574 394.611 234.053 395.071 233.694C395.533 233.333 396.089 233.152 396.737 233.152C397.385 233.152 397.939 233.333 398.399 233.694C398.862 234.053 399.215 234.574 399.458 235.256C399.703 235.936 399.826 236.756 399.826 237.717C399.826 238.683 399.705 239.507 399.462 240.19C399.219 240.87 398.867 241.389 398.407 241.748C397.947 242.104 397.391 242.282 396.737 242.282ZM396.737 241.327C397.385 241.327 397.888 241.015 398.247 240.39C398.606 239.765 398.785 238.874 398.785 237.717C398.785 236.947 398.703 236.292 398.538 235.751C398.376 235.21 398.141 234.798 397.835 234.514C397.531 234.231 397.165 234.089 396.737 234.089C396.095 234.089 395.593 234.406 395.231 235.039C394.869 235.67 394.689 236.562 394.689 237.717C394.689 238.486 394.77 239.14 394.932 239.678C395.094 240.216 395.327 240.625 395.63 240.906C395.937 241.187 396.306 241.327 396.737 241.327Z" fill="#BCBCBC"/>
<path d="M441.056 242.282C440.483 242.282 439.972 242.183 439.524 241.987C439.078 241.79 438.724 241.516 438.461 241.166C438.2 240.814 438.059 240.404 438.035 239.938H439.129C439.152 240.225 439.25 240.472 439.424 240.68C439.598 240.886 439.825 241.045 440.105 241.158C440.386 241.271 440.697 241.327 441.038 241.327C441.42 241.327 441.759 241.26 442.054 241.127C442.349 240.994 442.58 240.809 442.748 240.572C442.916 240.335 443 240.06 443 239.747C443 239.421 442.919 239.133 442.757 238.884C442.595 238.632 442.357 238.436 442.045 238.294C441.732 238.152 441.351 238.081 440.899 238.081H440.188V237.127H440.899C441.252 237.127 441.562 237.063 441.828 236.936C442.097 236.808 442.307 236.629 442.457 236.398C442.61 236.166 442.687 235.894 442.687 235.582C442.687 235.281 442.621 235.019 442.488 234.796C442.354 234.574 442.166 234.4 441.923 234.276C441.683 234.151 441.4 234.089 441.073 234.089C440.766 234.089 440.477 234.145 440.205 234.258C439.936 234.368 439.716 234.529 439.545 234.74C439.375 234.948 439.282 235.2 439.268 235.495H438.226C438.244 235.029 438.384 234.621 438.647 234.271C438.91 233.918 439.255 233.644 439.68 233.447C440.108 233.25 440.578 233.152 441.09 233.152C441.64 233.152 442.111 233.263 442.505 233.486C442.898 233.706 443.201 233.996 443.412 234.358C443.623 234.72 443.729 235.11 443.729 235.53C443.729 236.03 443.597 236.457 443.334 236.81C443.073 237.163 442.719 237.407 442.271 237.543V237.613C442.832 237.705 443.27 237.944 443.585 238.329C443.901 238.71 444.058 239.183 444.058 239.747C444.058 240.231 443.927 240.665 443.663 241.049C443.403 241.431 443.047 241.732 442.596 241.952C442.145 242.172 441.631 242.282 441.056 242.282ZM449.08 233.273V242.16H448.003V234.401H447.951L445.782 235.842V234.749L448.003 233.273H449.08Z" fill="#BCBCBC"/>
<path d="M493.173 242.282C492.6 242.282 492.089 242.183 491.641 241.987C491.195 241.79 490.841 241.516 490.578 241.166C490.317 240.814 490.176 240.404 490.153 239.938H491.246C491.269 240.225 491.368 240.472 491.541 240.68C491.715 240.886 491.942 241.045 492.222 241.158C492.503 241.271 492.814 241.327 493.155 241.327C493.537 241.327 493.876 241.26 494.171 241.127C494.466 240.994 494.697 240.809 494.865 240.572C495.033 240.335 495.117 240.06 495.117 239.747C495.117 239.421 495.036 239.133 494.874 238.884C494.712 238.632 494.475 238.436 494.162 238.294C493.85 238.152 493.468 238.081 493.017 238.081H492.305V237.127H493.017C493.369 237.127 493.679 237.063 493.945 236.936C494.214 236.808 494.424 236.629 494.574 236.398C494.728 236.166 494.804 235.894 494.804 235.582C494.804 235.281 494.738 235.019 494.605 234.796C494.472 234.574 494.284 234.4 494.041 234.276C493.8 234.151 493.517 234.089 493.19 234.089C492.883 234.089 492.594 234.145 492.322 234.258C492.053 234.368 491.833 234.529 491.663 234.74C491.492 234.948 491.399 235.2 491.385 235.495H490.344C490.361 235.029 490.501 234.621 490.764 234.271C491.028 233.918 491.372 233.644 491.797 233.447C492.225 233.25 492.695 233.152 493.207 233.152C493.757 233.152 494.229 233.263 494.622 233.486C495.016 233.706 495.318 233.996 495.529 234.358C495.74 234.72 495.846 235.11 495.846 235.53C495.846 236.03 495.714 236.457 495.451 236.81C495.191 237.163 494.836 237.407 494.388 237.543V237.613C494.949 237.705 495.387 237.944 495.703 238.329C496.018 238.71 496.176 239.183 496.176 239.747C496.176 240.231 496.044 240.665 495.781 241.049C495.52 241.431 495.164 241.732 494.713 241.952C494.262 242.172 493.748 242.282 493.173 242.282ZM490.17 257.16V256.379L493.103 253.168C493.448 252.792 493.731 252.465 493.954 252.187C494.177 251.907 494.341 251.643 494.449 251.398C494.558 251.149 494.613 250.888 494.613 250.616C494.613 250.304 494.538 250.034 494.388 249.805C494.24 249.576 494.038 249.4 493.78 249.276C493.523 249.151 493.233 249.089 492.912 249.089C492.571 249.089 492.273 249.16 492.018 249.302C491.767 249.441 491.572 249.636 491.433 249.887C491.297 250.139 491.229 250.434 491.229 250.773H490.205C490.205 250.252 490.325 249.795 490.565 249.401C490.805 249.008 491.132 248.701 491.545 248.482C491.962 248.262 492.429 248.152 492.947 248.152C493.468 248.152 493.929 248.262 494.331 248.482C494.733 248.701 495.049 248.998 495.277 249.371C495.506 249.744 495.62 250.159 495.62 250.616C495.62 250.943 495.561 251.263 495.442 251.575C495.326 251.885 495.124 252.231 494.835 252.613C494.548 252.992 494.151 253.454 493.641 254.001L491.645 256.136V256.206H495.776V257.16H490.17Z" fill="#BCBCBC"/>
<path d="M545.29 242.282C544.717 242.282 544.207 242.183 543.758 241.987C543.313 241.79 542.958 241.516 542.695 241.166C542.435 240.814 542.293 240.404 542.27 239.938H543.363C543.386 240.225 543.485 240.472 543.658 240.68C543.832 240.886 544.059 241.045 544.34 241.158C544.62 241.271 544.931 241.327 545.273 241.327C545.654 241.327 545.993 241.26 546.288 241.127C546.583 240.994 546.814 240.809 546.982 240.572C547.15 240.335 547.234 240.06 547.234 239.747C547.234 239.421 547.153 239.133 546.991 238.884C546.829 238.632 546.592 238.436 546.279 238.294C545.967 238.152 545.585 238.081 545.134 238.081H544.422V237.127H545.134C545.487 237.127 545.796 237.063 546.062 236.936C546.331 236.808 546.541 236.629 546.692 236.398C546.845 236.166 546.922 235.894 546.922 235.582C546.922 235.281 546.855 235.019 546.722 234.796C546.589 234.574 546.401 234.4 546.158 234.276C545.918 234.151 545.634 234.089 545.307 234.089C545.001 234.089 544.711 234.145 544.439 234.258C544.17 234.368 543.951 234.529 543.78 234.74C543.609 234.948 543.517 235.2 543.502 235.495H542.461C542.478 235.029 542.618 234.621 542.882 234.271C543.145 233.918 543.489 233.644 543.914 233.447C544.343 233.25 544.813 233.152 545.325 233.152C545.874 233.152 546.346 233.263 546.739 233.486C547.133 233.706 547.435 233.996 547.646 234.358C547.857 234.72 547.963 235.11 547.963 235.53C547.963 236.03 547.831 236.457 547.568 236.81C547.308 237.163 546.953 237.407 546.505 237.543V237.613C547.066 237.705 547.504 237.944 547.82 238.329C548.135 238.71 548.293 239.183 548.293 239.747C548.293 240.231 548.161 240.665 547.898 241.049C547.637 241.431 547.282 241.732 546.83 241.952C546.379 242.172 545.866 242.282 545.29 242.282ZM553.193 242.282C552.62 242.282 552.109 242.183 551.661 241.987C551.215 241.79 550.861 241.516 550.598 241.166C550.337 240.814 550.195 240.404 550.172 239.938H551.266C551.289 240.225 551.387 240.472 551.561 240.68C551.735 240.886 551.962 241.045 552.242 241.158C552.523 241.271 552.834 241.327 553.175 241.327C553.557 241.327 553.895 241.26 554.191 241.127C554.486 240.994 554.717 240.809 554.885 240.572C555.053 240.335 555.137 240.06 555.137 239.747C555.137 239.421 555.056 239.133 554.894 238.884C554.732 238.632 554.494 238.436 554.182 238.294C553.869 238.152 553.488 238.081 553.036 238.081H552.325V237.127H553.036C553.389 237.127 553.699 237.063 553.965 236.936C554.234 236.808 554.444 236.629 554.594 236.398C554.747 236.166 554.824 235.894 554.824 235.582C554.824 235.281 554.758 235.019 554.624 234.796C554.491 234.574 554.303 234.4 554.06 234.276C553.82 234.151 553.537 234.089 553.21 234.089C552.903 234.089 552.614 234.145 552.342 234.258C552.073 234.368 551.853 234.529 551.682 234.74C551.512 234.948 551.419 235.2 551.405 235.495H550.363C550.381 235.029 550.521 234.621 550.784 234.271C551.047 233.918 551.392 233.644 551.817 233.447C552.245 233.25 552.715 233.152 553.227 233.152C553.777 233.152 554.248 233.263 554.642 233.486C555.035 233.706 555.338 233.996 555.549 234.358C555.76 234.72 555.866 235.11 555.866 235.53C555.866 236.03 555.734 236.457 555.471 236.81C555.21 237.163 554.856 237.407 554.408 237.543V237.613C554.969 237.705 555.407 237.944 555.722 238.329C556.038 238.71 556.195 239.183 556.195 239.747C556.195 240.231 556.064 240.665 555.8 241.049C555.54 241.431 555.184 241.732 554.733 241.952C554.282 242.172 553.768 242.282 553.193 242.282Z" fill="#BCBCBC"/>
<path d="M597.407 242.282C596.834 242.282 596.324 242.183 595.875 241.987C595.43 241.79 595.075 241.516 594.812 241.166C594.552 240.814 594.41 240.404 594.387 239.938H595.48C595.504 240.225 595.602 240.472 595.776 240.68C595.949 240.886 596.176 241.045 596.457 241.158C596.737 241.271 597.048 241.327 597.39 241.327C597.772 241.327 598.11 241.26 598.405 241.127C598.7 240.994 598.932 240.809 599.099 240.572C599.267 240.335 599.351 240.06 599.351 239.747C599.351 239.421 599.27 239.133 599.108 238.884C598.946 238.632 598.709 238.436 598.396 238.294C598.084 238.152 597.702 238.081 597.251 238.081H596.539V237.127H597.251C597.604 237.127 597.913 237.063 598.18 236.936C598.449 236.808 598.658 236.629 598.809 236.398C598.962 236.166 599.039 235.894 599.039 235.582C599.039 235.281 598.972 235.019 598.839 234.796C598.706 234.574 598.518 234.4 598.275 234.276C598.035 234.151 597.751 234.089 597.424 234.089C597.118 234.089 596.829 234.145 596.557 234.258C596.288 234.368 596.068 234.529 595.897 234.74C595.726 234.948 595.634 235.2 595.619 235.495H594.578C594.595 235.029 594.736 234.621 594.999 234.271C595.262 233.918 595.606 233.644 596.032 233.447C596.46 233.25 596.93 233.152 597.442 233.152C597.991 233.152 598.463 233.263 598.856 233.486C599.25 233.706 599.552 233.996 599.763 234.358C599.975 234.72 600.08 235.11 600.08 235.53C600.08 236.03 599.949 236.457 599.685 236.81C599.425 237.163 599.071 237.407 598.622 237.543V237.613C599.183 237.705 599.622 237.944 599.937 238.329C600.252 238.71 600.41 239.183 600.41 239.747C600.41 240.231 600.278 240.665 600.015 241.049C599.755 241.431 599.399 241.732 598.948 241.952C598.496 242.172 597.983 242.282 597.407 242.282ZM602.099 240.338V239.452L606.004 233.273H606.646V234.644H606.212L603.262 239.314V239.383H608.521V240.338H602.099ZM606.282 242.16V240.069V239.656V233.273H607.306V242.16H606.282Z" fill="#BCBCBC"/>
<path d="M649.524 242.282C648.952 242.282 648.441 242.183 647.993 241.987C647.547 241.79 647.193 241.516 646.929 241.166C646.669 240.814 646.527 240.404 646.504 239.938H647.598C647.621 240.225 647.719 240.472 647.893 240.68C648.066 240.886 648.293 241.045 648.574 241.158C648.855 241.271 649.166 241.327 649.507 241.327C649.889 241.327 650.227 241.26 650.522 241.127C650.817 240.994 651.049 240.809 651.217 240.572C651.384 240.335 651.468 240.06 651.468 239.747C651.468 239.421 651.387 239.133 651.225 238.884C651.063 238.632 650.826 238.436 650.514 238.294C650.201 238.152 649.819 238.081 649.368 238.081H648.656V237.127H649.368C649.721 237.127 650.031 237.063 650.297 236.936C650.566 236.808 650.775 236.629 650.926 236.398C651.079 236.166 651.156 235.894 651.156 235.582C651.156 235.281 651.089 235.019 650.956 234.796C650.823 234.574 650.635 234.4 650.392 234.276C650.152 234.151 649.869 234.089 649.542 234.089C649.235 234.089 648.946 234.145 648.674 234.258C648.405 234.368 648.185 234.529 648.014 234.74C647.844 234.948 647.751 235.2 647.737 235.495H646.695C646.712 235.029 646.853 234.621 647.116 234.271C647.379 233.918 647.723 233.644 648.149 233.447C648.577 233.25 649.047 233.152 649.559 233.152C650.109 233.152 650.58 233.263 650.974 233.486C651.367 233.706 651.669 233.996 651.881 234.358C652.092 234.72 652.197 235.11 652.197 235.53C652.197 236.03 652.066 236.457 651.802 236.81C651.542 237.163 651.188 237.407 650.739 237.543V237.613C651.301 237.705 651.739 237.944 652.054 238.329C652.369 238.71 652.527 239.183 652.527 239.747C652.527 240.231 652.395 240.665 652.132 241.049C651.872 241.431 651.516 241.732 651.065 241.952C650.613 242.172 650.1 242.282 649.524 242.282ZM657.201 242.282C656.692 242.282 656.234 242.18 655.826 241.978C655.418 241.775 655.091 241.498 654.845 241.145C654.599 240.792 654.465 240.39 654.441 239.938H655.483C655.523 240.341 655.706 240.673 656.03 240.936C656.357 241.197 656.747 241.327 657.201 241.327C657.566 241.327 657.89 241.242 658.173 241.071C658.46 240.9 658.684 240.666 658.846 240.368C659.011 240.067 659.093 239.727 659.093 239.348C659.093 238.961 659.008 238.615 658.837 238.311C658.669 238.005 658.438 237.763 658.143 237.587C657.848 237.41 657.511 237.32 657.132 237.317C656.86 237.315 656.581 237.357 656.294 237.443C656.008 237.527 655.772 237.636 655.587 237.769L654.58 237.647L655.118 233.273H659.735V234.228H656.021L655.709 236.849H655.761C655.943 236.704 656.171 236.584 656.446 236.489C656.721 236.393 657.007 236.345 657.305 236.345C657.849 236.345 658.334 236.476 658.759 236.736C659.187 236.993 659.523 237.346 659.766 237.795C660.012 238.243 660.135 238.755 660.135 239.331C660.135 239.898 660.007 240.404 659.753 240.85C659.501 241.292 659.154 241.642 658.711 241.9C658.269 242.154 657.765 242.282 657.201 242.282Z" fill="#BCBCBC"/>
<line x1="65.7142" y1="214.978" x2="661.675" y2="214.978" stroke="#E0E0E0" stroke-width="1.01829" stroke-linecap="round" stroke-dasharray="3.05 3.05"/>
<path d="M65.8926 163.794C65.8926 163.794 110.676 183.007 132.195 179.404C153.715 175.802 207.852 143.38 239.21 143.38C259.566 143.38 327.883 163.794 341.572 163.794C373.56 163.794 394.498 122.366 444.516 109.757C493.387 97.4377 485.949 108.618 546.296 71.9312C598.641 40.1099 660.872 43.7126 660.872 43.7126" stroke="#251FD3" stroke-width="3" stroke-linecap="round" stroke-linejoin="round"/>
<path opacity="0.3" d="M65.8926 148.305C65.8926 148.305 112.421 194.414 133.94 190.812C155.459 187.209 207.271 154.787 238.629 154.787C258.985 154.787 330.209 148.305 343.899 148.305C375.887 148.305 393.335 110.958 443.353 98.349C492.223 86.0296 488.275 147.044 548.623 110.357C600.967 78.536 660.872 124.166 660.872 124.166" stroke="#1A2B88" stroke-width="2" stroke-linejoin="round" stroke-dasharray="7 7"/>
<path d="M138.176 178.804C138.176 181.266 136.25 183.208 133.941 183.208C131.633 183.208 129.707 181.266 129.707 178.804C129.707 176.342 131.633 174.4 133.941 174.4C136.25 174.4 138.176 176.342 138.176 178.804Z" fill="white" stroke="black" stroke-width="2"/>
<path d="M245.19 143.98C245.19 146.442 243.264 148.383 240.955 148.383C238.646 148.383 236.721 146.442 236.721 143.98C236.721 141.518 238.646 139.576 240.955 139.576C243.264 139.576 245.19 141.518 245.19 143.98Z" fill="white" stroke="black" stroke-width="2"/>
<path d="M347.553 163.194C347.553 165.656 345.627 167.597 343.318 167.597C341.01 167.597 339.084 165.656 339.084 163.194C339.084 160.731 341.01 158.79 343.318 158.79C345.627 158.79 347.553 160.731 347.553 163.194Z" fill="white" stroke="black" stroke-width="2"/>
<path d="M449.914 109.157C449.914 111.619 447.989 113.56 445.68 113.56C443.371 113.56 441.445 111.619 441.445 109.157C441.445 106.694 443.371 104.753 445.68 104.753C447.989 104.753 449.914 106.694 449.914 109.157Z" fill="white" stroke="black" stroke-width="2"/>
<path d="M552.275 70.7308C552.275 73.1931 550.35 75.1345 548.041 75.1345C545.732 75.1345 543.807 73.1931 543.807 70.7308C543.807 68.2685 545.732 66.3271 548.041 66.3271C550.35 66.3271 552.275 68.2685 552.275 70.7308Z" fill="white" stroke="black" stroke-width="2"/>
</svg>
