<svg width="16" height="17" viewBox="0 0 16 17" fill="none" xmlns="http://www.w3.org/2000/svg">
<path fill-rule="evenodd" clip-rule="evenodd" d="M11.1019 5.12758L8.44021 2.84639C8.31594 2.73746 8.15906 2.68172 8.00136 2.68164C7.89345 2.68158 7.78515 2.70758 7.68666 2.76042C7.64276 2.78391 7.60106 2.81259 7.5625 2.84639L4.90081 5.12758C4.62125 5.36718 4.58885 5.78805 4.82845 6.06761C5.06805 6.34717 5.48892 6.37957 5.76848 6.13997L7.33464 4.7977V9.96079C7.33464 10.329 7.63312 10.6275 8.00131 10.6275C8.3695 10.6275 8.66798 10.329 8.66798 9.96079L8.66798 4.79762L10.2342 6.13997C10.5138 6.37957 10.9347 6.34717 11.1743 6.06761C11.4139 5.78805 11.3815 5.36718 11.1019 5.12758ZM4.0013 9.34831C4.0013 8.98012 4.29978 8.68164 4.66797 8.68164H5.66797C6.03616 8.68164 6.33464 8.38316 6.33464 8.01497C6.33464 7.64678 6.03616 7.34831 5.66797 7.34831H4.66797C3.5634 7.34831 2.66797 8.24374 2.66797 9.34831V11.3483C2.66797 12.4529 3.5634 13.3483 4.66797 13.3483H11.3346C12.4392 13.3483 13.3346 12.4529 13.3346 11.3483V9.34831C13.3346 8.24374 12.4392 7.34831 11.3346 7.34831H10.3346C9.96645 7.34831 9.66797 7.64678 9.66797 8.01497C9.66797 8.38316 9.96645 8.68164 10.3346 8.68164H11.3346C11.7028 8.68164 12.0013 8.98012 12.0013 9.34831V11.3483C12.0013 11.7165 11.7028 12.015 11.3346 12.015H4.66797C4.29978 12.015 4.0013 11.7165 4.0013 11.3483V9.34831Z" fill="#0F3659"/>
</svg>
