<svg width="40" height="41" viewBox="0 0 40 41" fill="none" xmlns="http://www.w3.org/2000/svg">
<circle cx="20" cy="20.0156" r="20" fill="#FA5A7D"/>
<path fill-rule="evenodd" clip-rule="evenodd" d="M13 11.0156C11.8954 11.0156 11 11.9111 11 13.0156V27.0156C11 28.1202 11.8954 29.0156 13 29.0156H27C28.1046 29.0156 29 28.1202 29 27.0156V13.0156C29 11.9111 28.1046 11.0156 27 11.0156H13ZM16 21.0156C16 20.4633 15.5523 20.0156 15 20.0156C14.4477 20.0156 14 20.4633 14 21.0156V25.0156C14 25.5679 14.4477 26.0156 15 26.0156C15.5523 26.0156 16 25.5679 16 25.0156V21.0156ZM20 17.0156C20.5523 17.0156 21 17.4633 21 18.0156V25.0156C21 25.5679 20.5523 26.0156 20 26.0156C19.4477 26.0156 19 25.5679 19 25.0156V18.0156C19 17.4633 19.4477 17.0156 20 17.0156ZM26 15.0156C26 14.4633 25.5523 14.0156 25 14.0156C24.4477 14.0156 24 14.4633 24 15.0156V25.0156C24 25.5679 24.4477 26.0156 25 26.0156C25.5523 26.0156 26 25.5679 26 25.0156V15.0156Z" fill="white"/>
</svg>
