<svg width="40" height="41" viewBox="0 0 40 41" fill="none" xmlns="http://www.w3.org/2000/svg">
<circle cx="20" cy="20.0156" r="20" fill="#3CD856"/>
<path fill-rule="evenodd" clip-rule="evenodd" d="M24.6261 13.2809L21.3263 13.7524C20.8222 13.8244 20.4103 14.0647 20.1162 14.3968L12.4167 22.0962C11.6357 22.8772 11.6357 24.1435 12.4167 24.9246L15.2452 27.753C16.0263 28.5341 17.2925 28.5341 18.0736 27.753L25.773 20.0536C26.1051 19.7595 26.3454 19.3476 26.4174 18.8435L26.8888 15.5437C27.0775 14.2238 25.946 13.0923 24.6261 13.2809ZM22.3162 17.8536C22.7067 18.2441 23.3399 18.2441 23.7305 17.8536C24.121 17.463 24.1209 16.8298 23.7305 16.4393C23.34 16.0488 22.7068 16.0488 22.3162 16.4393C21.9257 16.8299 21.9257 17.4631 22.3162 17.8536Z" fill="white"/>
</svg>
