<svg width="40" height="41" viewBox="0 0 40 41" fill="none" xmlns="http://www.w3.org/2000/svg">
<circle cx="20" cy="20.0156" r="20" fill="#BF83FF"/>
<path fill-rule="evenodd" clip-rule="evenodd" d="M22 16.0156C22 18.2248 20.2091 20.0156 18 20.0156C15.7909 20.0156 14 18.2248 14 16.0156C14 13.8065 15.7909 12.0156 18 12.0156C20.2091 12.0156 22 13.8065 22 16.0156ZM18 21.0156C14.134 21.0156 11 23.2542 11 26.0156C11 27.1202 11.8954 28.0156 13 28.0156H23C24.1046 28.0156 25 27.1202 25 26.0156C25 23.2542 21.866 21.0156 18 21.0156ZM26 14.0156C26.5523 14.0156 27 14.4633 27 15.0156V16.0156H28C28.5523 16.0156 29 16.4633 29 17.0156C29 17.5679 28.5523 18.0156 28 18.0156H27V19.0156C27 19.5679 26.5523 20.0156 26 20.0156C25.4477 20.0156 25 19.5679 25 19.0156V18.0156H24C23.4477 18.0156 23 17.5679 23 17.0156C23 16.4633 23.4477 16.0156 24 16.0156H25V15.0156C25 14.4633 25.4477 14.0156 26 14.0156Z" fill="white"/>
</svg>
