<svg width="40" height="41" viewBox="0 0 40 41" fill="none" xmlns="http://www.w3.org/2000/svg">
<circle cx="20" cy="20.0156" r="20" fill="#FF947A"/>
<path fill-rule="evenodd" clip-rule="evenodd" d="M12 14.0156C12 11.8065 13.7909 10.0156 16 10.0156H22V14.0156C22 16.2248 23.7909 18.0156 26 18.0156H28V26.0156C28 28.2248 26.2091 30.0156 24 30.0156H16C13.7909 30.0156 12 28.2248 12 26.0156V14.0156ZM16 19.0156C15.4477 19.0156 15 19.4633 15 20.0156C15 20.5679 15.4477 21.0156 16 21.0156H18C18.5523 21.0156 19 20.5679 19 20.0156C19 19.4633 18.5523 19.0156 18 19.0156H16ZM16 23.0156C15.4477 23.0156 15 23.4633 15 24.0156C15 24.5679 15.4477 25.0156 16 25.0156H20C20.5523 25.0156 21 24.5679 21 24.0156C21 23.4633 20.5523 23.0156 20 23.0156H16ZM24.6818 12.2144L24.5509 14.1785C24.5106 14.7822 25.0115 15.2831 25.6152 15.2428L27.5792 15.1119C28.4365 15.0547 28.8274 14.0145 28.2198 13.407L26.3867 11.5738C25.7792 10.9663 24.7389 11.3572 24.6818 12.2144Z" fill="white"/>
</svg>
