<svg width="37" height="37" viewBox="0 0 37 37" fill="none" xmlns="http://www.w3.org/2000/svg">
<path opacity="0.4" d="M24.5293 3.17578H12.1218C6.73244 3.17578 3.51953 6.49257 3.51953 12.0562V24.8496C3.51953 30.4285 6.73244 33.7453 12.1218 33.7453H24.5145C29.9039 33.7453 33.1168 30.4285 33.1168 24.8648V12.0562C33.1316 6.49257 29.9187 3.17578 24.5293 3.17578Z" fill="#EBEBEB"/>
<path d="M18.3263 19.9886C17.4972 19.9886 16.8457 19.3008 16.8457 18.4601C16.8457 17.6195 17.512 16.9316 18.3263 16.9316C19.1406 16.9316 19.8069 17.6195 19.8069 18.4601C19.8069 19.3008 19.1554 19.9886 18.3263 19.9886Z" fill="#292D32"/>
<path d="M24.2482 19.9886C23.419 19.9886 22.7676 19.3008 22.7676 18.4601C22.7676 17.6195 23.4338 16.9316 24.2482 16.9316C25.0625 16.9316 25.7288 17.6195 25.7288 18.4601C25.7288 19.3008 25.0773 19.9886 24.2482 19.9886Z" fill="#292D32"/>
<path d="M12.4044 19.9886C11.5753 19.9886 10.9238 19.3008 10.9238 18.4601C10.9238 17.6195 11.5901 16.9316 12.4044 16.9316C13.2188 16.9316 13.885 17.6195 13.885 18.4601C13.885 19.3008 13.2336 19.9886 12.4044 19.9886Z" fill="#292D32"/>
</svg>
